inDegrees=no
num_controls=7
num_derivatives=13
num_iterations=60
num_multipliers=7
num_parameters=0
num_slacks=7
num_states=26
objective=0.454680
objective_accelerations=0.046021
objective_balance=0.000890
objective_effort=0.037096
objective_height=0.364506
objective_ligament=0.006166
solver_duration=680.962605
status=Solve_Succeeded
success=true
DataType=double
version=3
OpenSimVersion=4.5
endheader
time	/jointset/ground_pelvis/pelvis_tilt/value	/jointset/ground_pelvis/pelvis_tx/value	/jointset/ground_pelvis/pelvis_ty/value	/jointset/hip_r/hip_flexion_r/value	/jointset/hip_r/hip_adduction_r/value	/jointset/hip_r/hip_rotation_r/value	/jointset/back/lumbar_extension/value	/jointset/patellofemoral_r/patellar_flexion_r/value	/jointset/knee_r/knee_flexion_r/value	/jointset/knee_r/knee_adduction_r/value	/jointset/knee_r/knee_rotation_r/value	/jointset/ankle_r/ankle_angle_r/value	/jointset/subtalar_r/subtalar_angle_r/value	/jointset/ground_pelvis/pelvis_tilt/speed	/jointset/ground_pelvis/pelvis_tx/speed	/jointset/ground_pelvis/pelvis_ty/speed	/jointset/hip_r/hip_flexion_r/speed	/jointset/hip_r/hip_adduction_r/speed	/jointset/hip_r/hip_rotation_r/speed	/jointset/back/lumbar_extension/speed	/jointset/patellofemoral_r/patellar_flexion_r/speed	/jointset/knee_r/knee_flexion_r/speed	/jointset/knee_r/knee_adduction_r/speed	/jointset/knee_r/knee_rotation_r/speed	/jointset/ankle_r/ankle_angle_r/speed	/jointset/subtalar_r/subtalar_angle_r/speed	/forceset/tau_hip_flexion_r	/forceset/tau_hip_adduction_r	/forceset/tau_hip_rotation_r	/forceset/tau_knee_flexion_r	/forceset/tau_ankle_angle_r	/forceset/tau_subtalar_angle_r	/forceset/tau_lumbar_extension	lambda_cid13_p0	lambda_cid14_p0	lambda_cid14_p1	lambda_cid14_p2	lambda_cid14_p3	lambda_cid14_p4	lambda_cid14_p5	/jointset/ground_pelvis/pelvis_tilt/accel	/jointset/ground_pelvis/pelvis_tx/accel	/jointset/ground_pelvis/pelvis_ty/accel	/jointset/hip_r/hip_flexion_r/accel	/jointset/hip_r/hip_adduction_r/accel	/jointset/hip_r/hip_rotation_r/accel	/jointset/back/lumbar_extension/accel	/jointset/patellofemoral_r/patellar_flexion_r/accel	/jointset/knee_r/knee_flexion_r/accel	/jointset/knee_r/knee_adduction_r/accel	/jointset/knee_r/knee_rotation_r/accel	/jointset/ankle_r/ankle_angle_r/accel	/jointset/subtalar_r/subtalar_angle_r/accel	gamma_cid13_p0	gamma_cid14_p0	gamma_cid14_p1	gamma_cid14_p2	gamma_cid14_p3	gamma_cid14_p4	gamma_cid14_p5
0	-0.008507519414895385	0.1324261586299023	0.9330797516823888	0.1934211968871041	-0.2316292036918907	-0.2388201103601172	-0.2903787966825928	0.2311786273363535	0.2311786273363406	0.1401878632947076	0.1726533820724683	0.089344008118978	0.05955792281698144	0	0	0	0	0	0	0	0	0	0	0	0	0	0.08500633309622568	-0.03068300677249808	0.006907322685779873	-0.2033503751296296	0.0658733793576995	-0.1016247341514096	-0.01285033890042134	-29.93941732709043	-25.78484401126639	-42.92480525012427	0.7253593174826143	15.5991671701193	-609.3887790636057	26.23597952803958	-1.554837559344355	-1.996071995438154	-0.8292788999639299	9.971951427507317	0.1284970074770925	2.65420338009637	-6.195227491377746	10.40852566722799	10.40852566722922	-2.936891078529036	0.04509682379448757	2.786605777066951	0.9209372341469869	1.833102628814633e-07	1.212597089442134e-07	-1.159006855637563e-06	9.856194530391095e-07	4.675700771861919e-08	5.175442406753027e-07	-1.133591003990079e-06
0.01	-0.008579767670418122	0.1323295331145125	0.9330395379131123	0.1939013410033731	-0.2316257099715764	-0.2386871184299395	-0.2906901308232068	0.231684739533405	0.23168473953331	0.1400514047361688	0.172653382160191	0.08947965628420733	0.05959927845263892	-0.01441686916616621	-0.01903058201628276	-0.008013294751430016	0.095007818121496	0.0002208788958478139	0.02638855548493798	-0.061879455615585	0.1003122679066846	0.1003122679066925	-0.02601006597721474	0.0002436758033594897	0.02687466155924137	0.007610155734046244	0.08890876085303803	-0.05005922358228932	0.006093337894856434	-0.2170486823668432	0.08448854805300499	-0.09244301762952462	-0.0141022012612978	-29.94409951240362	-19.35050209945441	-37.8977345402442	0.02345794161920751	8.92591732931063	-611.3124989935587	38.07643479817925	-1.380194391708314	-1.812363794907382	-0.7828323882619274	9.112053542763299	-0.102799225742568	2.599901758260631	-6.126198720056785	9.706014965324432	9.706014965324746	-2.240907141858859	0.05074333815080798	2.59967497915555	0.5818428405992417	1.060853856402031e-07	4.401455390002725e-08	-7.244535089520407e-07	4.667628321489995e-07	4.73880760432736e-08	1.428029419743821e-07	-5.964154186164002e-07
0.02	-0.008795201176921336	0.1320514392809218	0.9329200956712151	0.1953009346085544	-0.2316343439736072	-0.238296496919841	-0.2916086383446608	0.2331666619320855	0.2331666619320836	0.1396932769614626	0.1726631670818239	0.08987640679175819	0.05969689326515042	-0.02863705019057385	-0.03629366364019347	-0.01584569452413247	0.1838898977746434	-0.002425544463649725	0.05152591599259557	-0.1214346761674456	0.1951620403308043	0.195162040330815	-0.04433384333611871	0.001956966788489115	0.052220468470593	0.01125183537073885	0.09281118861051052	-0.06943544039180467	0.00527935310413735	-0.2307469896036548	0.1031037167485624	-0.08326130110723155	-0.01535406362185325	-29.95810430386317	-12.83836893424498	-32.87645182174445	-0.6553487828304809	2.291737103638923	-611.987834595978	49.6472482869515	-1.515499930992361	-1.642571916964045	-0.7930999042184026	8.746803733837698	-0.4449634435919855	2.40396438464026	-5.730380478632691	9.316026570715074	9.31602657071527	-1.399633354866869	0.3390198601485631	2.480834847488667	0.127242014676154	2.886050839894278e-08	-3.323060114415889e-08	-2.899001622665188e-07	-5.209378874111043e-08	4.801914436792801e-08	-2.319383567265385e-07	-5.923983324272107e-08
0.03	-0.009152311861182712	0.1316073467643471	0.9327227834587379	0.1975670769222734	-0.2316780479094688	-0.2376606100488289	-0.2931098458401551	0.2355765079961694	0.2355765079962245	0.1391762879133462	0.1726954243742192	0.09052139090582646	0.05981887307081615	-0.04275914648440068	-0.05245052119459204	-0.02362307519708569	0.2691208183397181	-0.006157571405579118	0.07553101454788544	-0.1783402295889986	0.2865561227785661	0.2865561227785702	-0.05931472709997635	0.004425318698011767	0.0767840942828474	0.01334412115587153	0.08724447593532925	-0.0691403037107632	0.005882560474042998	-0.2250932532930142	0.09529233456534608	-0.0794561643814138	-0.01072596081068375	-29.98121118410968	-15.13673955611081	-31.51891076185072	-0.9944533697923427	3.116744844666694	-612.3282319976773	51.50416227913808	-1.356670069144119	-1.591085297012285	-0.7710541344384071	8.378573054669671	-0.3137153601887117	2.380715434249144	-5.60065377207935	9.013436165348061	9.013436165347096	-1.584980377524113	0.1903617222014728	2.44529333512442	0.2801701836617372	6.55778845493211e-08	-2.709453022817646e-08	-5.061412437097473e-07	1.401893345656278e-07	7.235521670131192e-08	-2.625369372886743e-07	-2.790753985540402e-07
0.04	-0.009649864626513033	0.1310039171477611	0.932447498042409	0.2006789958089654	-0.2317543507228622	-0.2367882856235761	-0.2951661110695027	0.2388927623014649	0.238892762301459	0.1385019571291803	0.1727502889588703	0.09141224465544041	0.05996776539897924	-0.05672546640075628	-0.06816108364245731	-0.0314403352944852	0.3530452123779506	-0.008945319975246731	0.09881342683419499	-0.2324462229370228	0.3764436885679694	0.3764436885679643	-0.07580219047896646	0.006478425241438399	0.1013943955763121	0.01663433987019134	0.08167776325974217	-0.06884516702991833	0.006485767843678774	-0.219439516982648	0.08748095238194996	-0.07565102765588179	-0.006097857999680104	-30.01224374298657	-17.36430849459257	-30.16338117035432	-1.316777878662859	3.953574854945134	-611.5541735291753	53.15199751106709	-1.484344655497835	-1.553312895657649	-0.801075789107648	8.485498428469374	-0.2561077691396494	2.259427130844167	-5.170468463926747	9.0147232390434	9.01472323904305	-1.70094927789335	0.2559707869294167	2.490169943730434	0.3668286005134866	1.046445855118982e-07	-1.923925877693278e-08	-7.358007669700637e-07	3.471351330104455e-07	9.718005200394801e-08	-2.860397917036186e-07	-5.145194411990708e-07
0.05	-0.01028601575039547	0.130245953425403	0.9320936771205015	0.2046214074736975	-0.2318560881623931	-0.2356872075542576	-0.2977498633689012	0.2430986644226054	0.2430986644226059	0.1376607724395806	0.1728248765839139	0.09254821082629429	0.06015239026024793	-0.07040609396888718	-0.083321570407155	-0.03933914150355657	0.4349327778613752	-0.01147273580238835	0.1212756881181534	-0.2839263141796368	0.4642864387863908	0.4642864387863864	-0.09211975373992566	0.008455960564521307	0.1256772743631144	0.02017089312213536	0.07684313226843599	-0.0632625796360933	0.006878601965000944	-0.2166162828512993	0.08495934875746611	-0.07717387856196345	-0.001952051942223573	-30.04988027225581	-18.19253877594389	-31.02890113933883	-1.111251663621789	3.840838465041854	-611.0377389045289	50.21678460130668	-1.295112782141485	-1.480883367684044	-0.7866342971364233	7.964737451741807	-0.2616772354006913	2.22073130885914	-5.080091039656668	8.601485137047932	8.601485137048172	-1.549992712522699	0.1712487363939218	2.379124248789883	0.329033950507489	8.97880333090392e-08	-3.719500921854203e-08	-6.592285636899378e-07	2.273717498015426e-07	9.914248771939936e-08	-3.799708218078377e-07	-3.976727787450214e-07
0.06	-0.01105601134490301	0.1293396914752352	0.9316603978844371	0.2093675651619701	-0.2319852235093726	-0.2343652857357688	-0.3008370788977691	0.2481694808907371	0.2481694808907313	0.1366658455450324	0.172919760328351	0.09392336126554135	0.06036877370663079	-0.08349436052383243	-0.09782072920437669	-0.04733199812585925	0.513794417083299	-0.01442490146550336	0.1429821766696106	-0.3331388688313315	0.549426557957072	0.5494265579570697	-0.1065506314939127	0.01053764914346528	0.1492312492553049	0.02298605689298651	0.07200850127733108	-0.0576799922422667	0.007271436085918517	-0.2137930487198088	0.08243774513302619	-0.07869672946802403	0.002193754115373436	-30.09257125572754	-18.956991909997	-31.90053643800008	-0.885008939451031	3.733587002672873	-609.5144824762684	47.07883530996178	-1.365872452860452	-1.42104730216271	-0.8198858717539023	7.880313176169308	-0.3410577363343362	2.108272584343885	-4.7169611457427	8.47419702949542	8.47419702949534	-1.323612176498922	0.2768014381016859	2.344389164807803	0.2225507042948298	7.266102834131973e-08	-5.623753952932403e-08	-5.697623929765303e-07	9.385219052300924e-08	1.001422960838113e-07	-4.768672487831841e-07	-2.65992823444695e-07
0.07000000000000001	-0.01195463699263919	0.1282918528800257	0.9311465101561244	0.2148885911227543	-0.2321451345772774	-0.2328293320243281	-0.3044047871179528	0.2540790286912331	0.254079028691244	0.1355341535634752	0.1730348762139535	0.09553117554301881	0.06061098722721611	-0.09615348466186253	-0.1116242013031937	-0.05547253134481868	0.5899778207357701	-0.01750078022627447	0.1641522390145755	-0.3800480302743411	0.6320808450624096	0.6320808450624105	-0.1197400889327655	0.012360848097931	0.1722888799025413	0.02551632068045409	0.06785734696890053	-0.06007674725417339	0.00766557890540312	-0.2133012811653122	0.08124697134743068	-0.07423399326253872	0.005862789931104646	-30.13866185629034	-18.98805944622065	-29.96881789850302	-1.191826853687813	2.791857611311965	-608.3842689441774	50.07939649008895	-1.2043298724069	-1.341558843777872	-0.8152811661159306	7.422411430321981	-0.2824239938592929	2.112956521087185	-4.624681903600727	8.100706664197446	8.100706664197899	-1.309540339777105	0.1164019524142728	2.280049961130512	0.2771381476710267	6.980060094724065e-08	-5.990380994714032e-08	-5.223640349917392e-07	8.850126586259077e-08	1.011048346503092e-07	-5.235220802241351e-07	-2.437690317723179e-07
